<svg width="12" height="18" viewBox="0 0 12 18" fill="none" xmlns="http://www.w3.org/2000/svg">
<path d="M11.6685 0.500053C11.6685 0.367445 11.6158 0.240268 11.522 0.1465C11.4282 0.052732 11.3011 5.3443e-05 11.1685 5.3443e-05H8.66846C7.40958 -0.0626557 6.17705 0.375445 5.24018 1.21863C4.3033 2.06182 3.73824 3.24155 3.66846 4.50005V7.20005H1.16846C1.03585 7.20005 0.908672 7.25273 0.814904 7.3465C0.721136 7.44027 0.668457 7.56744 0.668457 7.70005V10.3001C0.668457 10.4327 0.721136 10.5598 0.814904 10.6536C0.908672 10.7474 1.03585 10.8001 1.16846 10.8001H3.66846V17.5001C3.66846 17.6327 3.72114 17.7598 3.8149 17.8536C3.90867 17.9474 4.03585 18.0001 4.16846 18.0001H7.16846C7.30107 18.0001 7.42824 17.9474 7.52201 17.8536C7.61578 17.7598 7.66846 17.6327 7.66846 17.5001V10.8001H10.2885C10.3996 10.8017 10.5082 10.7661 10.5969 10.6991C10.6857 10.6321 10.7496 10.5374 10.7785 10.4301L11.4985 7.83005C11.5184 7.75618 11.521 7.67872 11.5063 7.60364C11.4915 7.52857 11.4597 7.45788 11.4134 7.39702C11.367 7.33617 11.3073 7.28676 11.2388 7.25261C11.1704 7.21846 11.095 7.20048 11.0185 7.20005H7.66846V4.50005C7.69333 4.25253 7.80957 4.02317 7.99448 3.85675C8.17939 3.69033 8.41969 3.59881 8.66846 3.60005H11.1685C11.3011 3.60005 11.4282 3.54737 11.522 3.45361C11.6158 3.35984 11.6685 3.23266 11.6685 3.10005V0.500053Z" fill="white"/>
</svg>
