<svg width="43" height="40" viewBox="0 0 43 40" fill="none" xmlns="http://www.w3.org/2000/svg">
<g clip-path="url(#clip0_0_27)">
<path d="M35.3218 1.99558H32.4021C31.0771 1.99707 30.0034 3.01711 30.0019 4.27584V6.70941L23.3078 0.662069C22.344 -0.22069 20.8178 -0.22069 19.854 0.662069L2.47667 16.3606C1.68883 17.0717 1.44012 18.1688 1.84996 19.1249C2.21875 20.0545 3.15685 20.6684 4.20253 20.6644H4.73589V37.6663C4.74905 38.9656 5.86678 40.0096 7.23445 40H35.9255C37.2932 40.0096 38.4109 38.9656 38.424 37.6663V20.6644H38.9574C40.0031 20.6684 40.9412 20.0545 41.31 19.1249C41.7198 18.1687 41.4711 17.0717 40.6833 16.3606L37.7222 13.685V4.27584C37.7205 3.01711 36.6468 1.99707 35.3218 1.99558ZM31.4056 4.27584C31.4063 3.75328 31.8521 3.3298 32.4021 3.32909H35.3218C35.8719 3.3298 36.3176 3.75328 36.3184 4.27584V12.4168L31.4056 7.9776V4.27584ZM40.0059 18.6309C39.8446 19.0494 39.4265 19.3286 38.9573 19.3309H37.7221C37.3344 19.3309 37.0203 19.6295 37.0203 19.9977V37.6663C37.0076 38.2293 36.5181 38.6765 35.9254 38.6664H7.23437C6.6417 38.6765 6.15217 38.2293 6.13951 37.6663V19.9977C6.13951 19.6294 5.82525 19.3309 5.4377 19.3309H4.20244C3.73331 19.3286 3.31517 19.0494 3.15389 18.6309C2.95543 18.1812 3.07082 17.6618 3.44372 17.3267L20.8233 1.62288C21.2431 1.22877 21.9186 1.22877 22.3385 1.62288L39.7166 17.3247C40.0901 17.6604 40.2052 18.1807 40.0059 18.6309Z" fill="#025595"/>
<path d="M11.0523 23.9982C11.0494 27.6801 13.1784 31.0653 16.5927 32.8078C20.007 34.5502 24.1533 34.3676 27.3833 32.3325L32.0252 36.743C32.5562 37.2473 33.33 37.4442 34.0551 37.2595C34.7803 37.0747 35.3466 36.5366 35.5409 35.8476C35.7352 35.1587 35.5278 34.4237 34.9968 33.9194L30.3527 29.5115C32.8445 25.943 32.6681 21.2633 29.9142 17.8732C27.1603 14.483 22.44 13.1346 18.1746 14.5196C13.9092 15.9047 11.0456 19.7159 11.0523 23.9982ZM34.008 34.8661C34.1408 34.9886 34.2157 35.1569 34.2157 35.3327C34.2157 35.5085 34.1408 35.6769 34.008 35.7994C33.7345 36.0567 33.294 36.0567 33.0206 35.7994L28.5064 31.511C28.8567 31.2195 29.1863 30.9064 29.4932 30.5735L34.008 34.8661ZM30.7038 23.9982C30.7038 28.7852 26.6188 32.6658 21.5799 32.6658C16.541 32.6658 12.456 28.7852 12.456 23.9982C12.456 19.2111 16.5409 15.3305 21.5798 15.3305C26.6164 15.336 30.6979 19.2134 30.7038 23.9982Z" fill="#025595"/>
<path fill-rule="evenodd" clip-rule="evenodd" d="M18.4434 17.2967C15.6586 18.4769 13.8636 21.1012 13.8597 23.9981C13.8597 24.3664 14.174 24.6648 14.5615 24.6648C14.9492 24.6648 15.2634 24.3663 15.2634 23.9981C15.2671 21.6274 16.7364 19.48 19.0154 18.5141C19.2493 18.4201 19.4114 18.2133 19.4393 17.9735C19.4673 17.7337 19.3567 17.4982 19.1501 17.3579C18.9436 17.2175 18.6733 17.1941 18.4434 17.2967Z" fill="#025595"/>
<path d="M21.5799 17.9975C21.9675 17.9975 22.2817 17.699 22.2817 17.3308C22.2817 16.9626 21.9675 16.6641 21.5799 16.6641C21.1923 16.6641 20.8781 16.9626 20.8781 17.3308C20.8781 17.699 21.1923 17.9975 21.5799 17.9975Z" fill="#025595"/>
</g>
<defs>
<clipPath id="clip0_0_27">
<rect width="42.1053" height="40" fill="white" transform="translate(0.527283)"/>
</clipPath>
</defs>
</svg>
