<svg width="25" height="24" viewBox="0 0 25 24" fill="none" xmlns="http://www.w3.org/2000/svg">
<path d="M15.8185 8.4C15.052 8.39737 14.2926 8.54589 13.5836 8.83707C12.8746 9.12826 12.23 9.55638 11.6866 10.0969C11.1433 10.6375 10.7119 11.2799 10.417 11.9874C10.1222 12.6949 9.96979 13.4535 9.96848 14.22V20.1C9.96848 20.3387 10.0633 20.5676 10.2321 20.7364C10.4009 20.9052 10.6298 21 10.8685 21H12.9685C13.2072 21 13.4361 20.9052 13.6049 20.7364C13.7737 20.5676 13.8685 20.3387 13.8685 20.1V14.22C13.8683 13.9474 13.9255 13.6778 14.0365 13.4288C14.1475 13.1798 14.3097 12.957 14.5125 12.7749C14.7154 12.5928 14.9543 12.4555 15.2138 12.372C15.4733 12.2884 15.7475 12.2605 16.0185 12.29C16.5045 12.3512 16.9511 12.5887 17.2737 12.9573C17.5963 13.326 17.7723 13.8002 17.7685 14.29V20.1C17.7685 20.3387 17.8633 20.5676 18.0321 20.7364C18.2009 20.9052 18.4298 21 18.6685 21H20.7685C21.0072 21 21.2361 20.9052 21.4049 20.7364C21.5737 20.5676 21.6685 20.3387 21.6685 20.1V14.22C21.6672 13.4535 21.5147 12.6949 21.2199 11.9874C20.9251 11.2799 20.4937 10.6375 19.9503 10.0969C19.4069 9.55638 18.7623 9.12826 18.0534 8.83707C17.3444 8.54589 16.5849 8.39737 15.8185 8.4Z" fill="white"/>
<path d="M7.26846 9.29999H4.56846C4.0714 9.29999 3.66846 9.70293 3.66846 10.2V20.1C3.66846 20.597 4.0714 21 4.56846 21H7.26846C7.76551 21 8.16846 20.597 8.16846 20.1V10.2C8.16846 9.70293 7.76551 9.29999 7.26846 9.29999Z" fill="white"/>
<path d="M5.91846 7.5C7.1611 7.5 8.16846 6.49264 8.16846 5.25C8.16846 4.00736 7.1611 3 5.91846 3C4.67582 3 3.66846 4.00736 3.66846 5.25C3.66846 6.49264 4.67582 7.5 5.91846 7.5Z" fill="white"/>
</svg>
