<svg width="31" height="30" viewBox="0 0 31 30" fill="none" xmlns="http://www.w3.org/2000/svg">
<path opacity="0.4" d="M26.7111 10.5625C25.4006 4.7875 20.371 2.1875 15.9528 2.1875C15.9528 2.1875 15.9528 2.1875 15.9404 2.1875C11.5347 2.1875 6.49256 4.775 5.1821 10.55C3.72188 17 7.66574 22.4625 11.2352 25.9C12.5581 27.175 14.2555 27.8125 15.9528 27.8125C17.6502 27.8125 19.3476 27.175 20.658 25.9C24.2275 22.4625 28.1713 17.0125 26.7111 10.5625Z" fill="#025595"/>
<path d="M15.9523 16.8252C18.1236 16.8252 19.8837 15.0623 19.8837 12.8877C19.8837 10.7131 18.1236 8.9502 15.9523 8.9502C13.7811 8.9502 12.0209 10.7131 12.0209 12.8877C12.0209 15.0623 13.7811 16.8252 15.9523 16.8252Z" fill="#025595"/>
</svg>
