<svg width="25" height="24" viewBox="0 0 25 24" fill="none" xmlns="http://www.w3.org/2000/svg">
<path d="M8.74847 20C10.2272 20.0495 11.7008 19.802 13.0822 19.2723C14.4636 18.7425 15.7249 17.9413 16.7914 16.9158C17.8579 15.8903 18.708 14.6615 19.2914 13.3019C19.8749 11.9423 20.1799 10.4795 20.1885 8.99998C20.8661 8.1614 21.3693 7.19581 21.6685 6.15998C21.6908 6.07814 21.689 5.99159 21.6633 5.91076C21.6376 5.82992 21.589 5.75824 21.5235 5.70435C21.458 5.65046 21.3783 5.61666 21.294 5.60701C21.2097 5.59736 21.1245 5.61229 21.0485 5.64998C20.6939 5.82064 20.2948 5.87576 19.9073 5.80759C19.5198 5.73942 19.1635 5.55138 18.8885 5.26998C18.5374 4.88556 18.1128 4.57551 17.6397 4.35821C17.1666 4.14091 16.6548 4.02077 16.1344 4.00492C15.6141 3.98906 15.0958 4.07782 14.6104 4.26592C14.125 4.45402 13.6823 4.73764 13.3085 5.09998C12.7967 5.59564 12.4218 6.21527 12.2203 6.89866C12.0188 7.58204 11.9975 8.30594 12.1585 8.99998C8.80847 9.19998 6.50847 7.60998 4.66847 5.42998C4.61319 5.36738 4.54088 5.32224 4.46037 5.30005C4.37986 5.27787 4.29463 5.27961 4.21509 5.30506C4.13555 5.33051 4.06515 5.37858 4.01247 5.44338C3.9598 5.50818 3.92713 5.58692 3.91847 5.66998C3.56794 7.61441 3.8208 9.61953 4.64309 11.4161C5.46537 13.2126 6.81771 14.7145 8.51847 15.72C7.3781 17.0278 5.77668 17.8446 4.04847 18C3.95588 18.0153 3.87041 18.0593 3.80402 18.1256C3.73763 18.1919 3.69364 18.2774 3.67821 18.3699C3.66278 18.4625 3.67668 18.5576 3.71797 18.6419C3.75926 18.7262 3.82586 18.7954 3.90847 18.84C5.41199 19.5913 7.0677 19.9882 8.74847 20Z" fill="white"/>
</svg>
